<svg xmlns="http://www.w3.org/2000/svg" xmlns:xlink="http://www.w3.org/1999/xlink" viewBox="0 0 173.52 31.44"><defs><style>.cls-1{fill:none;}.cls-2{isolation:isolate;}.cls-3{fill:#041c33;}.cls-4{fill:url(#名称未設定グラデーション_2);}.cls-5{clip-path:url(#clip-path);}.cls-6{opacity:0.58;mix-blend-mode:soft-light;}.cls-7{fill:url(#中間色_11);}</style><linearGradient id="名称未設定グラデーション_2" x1="0.3" y1="27.11" x2="26.7" y2="0.7" gradientUnits="userSpaceOnUse"><stop offset="0" stop-color="#000bfc"/><stop offset="0.07" stop-color="#0b0dfc"/><stop offset="0.36" stop-color="#3614fd"/><stop offset="0.62" stop-color="#5519fe"/><stop offset="0.84" stop-color="#671cff"/><stop offset="1" stop-color="#6e1dff"/></linearGradient><clipPath id="clip-path" transform="translate(1.31 0.7)"><path class="cls-1" d="M27,16.82v9.57a1,1,0,0,1-1,1H16.41ZM10.59.41H1a1,1,0,0,0-1,1V11ZM27,8.88V1.42a1,1,0,0,0-1-1H18.52L0,18.93v7.46a1,1,0,0,0,1,1H8.48Z"/></clipPath><linearGradient id="中間色_11" y1="15.72" x2="30.65" y2="15.72" gradientUnits="userSpaceOnUse"><stop offset="0" stop-color="#fde7c6"/><stop offset="0.1" stop-color="#5c3e08"/><stop offset="0.2" stop-color="#fde7c6"/><stop offset="0.3" stop-color="#5c3e08"/><stop offset="0.4" stop-color="#fde7c6"/><stop offset="0.5" stop-color="#5c3e08"/><stop offset="0.6" stop-color="#fde7c6"/><stop offset="0.7" stop-color="#5c3e08"/><stop offset="0.8" stop-color="#fde7c6"/><stop offset="0.9" stop-color="#5c3e08"/><stop offset="1" stop-color="#fde7c6"/></linearGradient></defs><g class="cls-2"><g id="レイヤー_2" data-name="レイヤー 2"><g id="レイヤー_2-2" data-name="レイヤー 2"><path class="cls-3" d="M42.19,27.39h-2a1.07,1.07,0,0,1-1.06-1V1.47a1,1,0,0,1,1.06-1h2.07a1.1,1.1,0,0,1,1.06,1V26.37A1.14,1.14,0,0,1,42.19,27.39Z" transform="translate(1.31 0.7)"/><path class="cls-3" d="M62.62,27.39h-2a1.59,1.59,0,0,1-1.51-1.1l-5.85-14c-.23-.53-.46-.49-.46,0V26.29a1,1,0,0,1-1.09,1.1h-2a1,1,0,0,1-1.06-1.06V1.51A1,1,0,0,1,49.63.42h2a1.69,1.69,0,0,1,1.51,1.05l5.89,14.1c.23.52.46.49.46,0V1.51a1.06,1.06,0,0,1,1-1.09h2a1,1,0,0,1,1.1,1.05V26.33A1.15,1.15,0,0,1,62.62,27.39Z" transform="translate(1.31 0.7)"/><path class="cls-3" d="M81.85,27.39h-2c-.94,0-.87-.72-1.13-.72a1,1,0,0,0-.49.27,5.45,5.45,0,0,1-3.18.87,6.1,6.1,0,0,1-5.59-3.18c-.9-1.77-1.17-3.4-1.17-7.21V10c0-4.42.27-5.85,1.51-7.48A7,7,0,0,1,75.5,0c5,0,7.33,3.51,7.33,8.16a1,1,0,0,1-1,1.06h-2a1,1,0,0,1-1.06-1.1c-.11-2.76-1.21-4.23-3.21-4.23-2.27,0-3.06,1.44-3.06,5.33v8.2c0,4.83.87,6.5,3.28,6.5,2.16,0,3.06-1.59,3.06-5.22,0-.72-.26-1.28-1.09-1.28H76.41a1,1,0,0,1-1.06-1.1V15.11A1,1,0,0,1,76.41,14h5.44A1.19,1.19,0,0,1,83,15.07V26.33A1.13,1.13,0,0,1,81.85,27.39Z" transform="translate(1.31 0.7)"/><path class="cls-3" d="M101.46,27.39H99.23a1.37,1.37,0,0,1-1.44-1.1l-2.87-8.87c-.26-.76-.56-1.06-1.39-1.06h-.38c-.72,0-1.1.34-1.1,1.06v8.91A1,1,0,0,1,91,27.39H88.92a1,1,0,0,1-1-1.06V1.51A1.11,1.11,0,0,1,89,.42h5.52c5,0,7.71,2.68,7.71,7.7,0,3-.91,5.22-2.76,6.54-.64.45-.79.72-.61,1.36l3.37,10.27A.79.79,0,0,1,101.46,27.39ZM93.6,4.27h-.45a1.09,1.09,0,0,0-1.1,1.09v6.05a1.09,1.09,0,0,0,1.1,1.09h.45c3.17,0,4.27-1.09,4.27-4.15S96.77,4.27,93.6,4.27Z" transform="translate(1.31 0.7)"/><path class="cls-3" d="M118.42,26.33a1.06,1.06,0,0,1-1.1,1.06h-10a1.09,1.09,0,0,1-1.09-1.06V1.51A1.27,1.27,0,0,1,107.27.42h10a1,1,0,0,1,1.06,1.09v1.7a1,1,0,0,1-1,1.06h-5.93c-.76,0-1.1.53-1.1,1.25v4.76a1,1,0,0,0,1.1,1.05h5a1,1,0,0,1,1.05,1.1v1.7a1.08,1.08,0,0,1-1.05,1.06h-5.07a1.07,1.07,0,0,0-1,1.13v6.12a1,1,0,0,0,1,1.1h5.93a1.18,1.18,0,0,1,1.1,1.13Z" transform="translate(1.31 0.7)"/><path class="cls-3" d="M128.77,27.39h-5.59a1,1,0,0,1-1-1.1V1.51a1.13,1.13,0,0,1,1-1.09h5.59c5.29,0,7.82,2.72,7.82,8.42V18.93C136.59,24.71,134.06,27.39,128.77,27.39ZM132.4,10c0-4.27-1.06-5.74-4-5.74h-1.06a1,1,0,0,0-1,1V22.67a.92.92,0,0,0,.91.87h1.17c2.91,0,4-1.51,4-5.71Z" transform="translate(1.31 0.7)"/><path class="cls-3" d="M161.37,25.43a6.6,6.6,0,0,1-5.55,2.38c-2.42,0-4.46-.84-5.59-2.38s-1.55-3.29-1.55-6.69V1.51A1.08,1.08,0,0,1,149.74.42h2a1,1,0,0,1,1.09,1.09V19.38c0,3.21.87,4.54,3,4.54s3-1.29,3-4.54V1.51A1,1,0,0,1,159.86.42h2a1.1,1.1,0,0,1,1.09,1.13V18.7C162.92,22.18,162.54,24,161.37,25.43Z" transform="translate(1.31 0.7)"/><path class="cls-3" d="M171.12,27.39h-2a1.07,1.07,0,0,1-1.06-1V1.47a1,1,0,0,1,1.06-1h2.08a1.09,1.09,0,0,1,1.05,1V26.37A1.13,1.13,0,0,1,171.12,27.39Z" transform="translate(1.31 0.7)"/><path class="cls-4" d="M27,16.82v9.57a1,1,0,0,1-1,1H16.41ZM10.59.41H1a1,1,0,0,0-1,1V11ZM27,8.88V1.42a1,1,0,0,0-1-1H18.52L0,18.93v7.46a1,1,0,0,0,1,1H8.48Z" transform="translate(1.31 0.7)"/><g class="cls-5"><g class="cls-6"><rect class="cls-7" width="30.65" height="31.44"/></g></g></g></g></g></svg>